<?xml version="1.0" standalone="no"?>
<!DOCTYPE svg PUBLIC "-//W3C//DTD SVG 20010904//EN"
 "http://www.w3.org/TR/2001/REC-SVG-20010904/DTD/svg10.dtd">
<svg version="1.0" xmlns="http://www.w3.org/2000/svg"
 width="225.000000pt" height="225.000000pt" viewBox="0 0 225.000000 225.000000"
 preserveAspectRatio="xMidYMid meet">

<g transform="translate(0.000000,225.000000) scale(0.100000,-0.100000)"
fill="#000000" stroke="none">
<path d="M1000 2149 c0 -5 4 -8 9 -5 4 3 16 -3 25 -13 16 -18 14 -19 -56 -27
-104 -12 -110 -12 -135 4 -15 9 -23 10 -23 3 0 -6 6 -11 13 -11 19 0 47 -37
54 -71 3 -16 10 -32 16 -36 9 -6 6 17 -9 69 -3 12 4 18 26 23 35 8 52 0 22 -9
-19 -6 -19 -9 -5 -36 8 -17 17 -30 19 -30 3 0 3 4 -1 9 -3 6 3 14 12 20 16 9
15 10 -6 11 l-23 0 23 25 c31 32 36 31 41 -6 4 -22 -1 -34 -15 -44 -19 -13
-18 -14 10 -13 29 1 30 2 22 37 -12 50 -12 51 11 51 17 0 20 -7 20 -39 0 -22
5 -43 11 -46 7 -5 8 7 4 39 -7 42 -5 46 13 46 18 0 21 -7 25 -47 l3 -48 2 48
c2 43 4 47 27 47 25 0 36 -25 14 -32 -7 -2 -5 -9 5 -17 14 -12 16 -10 16 18 0
24 4 31 19 31 16 0 18 -7 15 -47 l-3 -48 13 50 12 50 -30 3 c-17 1 -46 5 -64
8 -34 5 -34 6 -15 26 13 16 14 20 3 16 -8 -2 -19 -14 -25 -26 -13 -28 -26 -28
-55 3 -25 26 -40 32 -40 14z"/>
<path d="M1140 2146 c0 -2 7 -7 16 -10 8 -3 12 -2 9 4 -6 10 -25 14 -25 6z"/>
<path d="M830 2135 c0 -2 10 -10 23 -16 20 -11 21 -11 8 4 -13 16 -31 23 -31
12z"/>
<path d="M1357 2123 c-13 -12 -7 -25 6 -14 15 12 27 5 27 -14 0 -10 -16 -9
-67 1 -37 8 -71 13 -77 11 -6 -3 6 -8 27 -12 43 -8 51 -27 10 -23 -22 2 -28
-1 -28 -17 0 -13 8 -21 23 -23 16 -2 22 -8 18 -18 -3 -8 -1 -14 4 -14 6 0 10
9 10 20 0 13 7 20 20 20 18 0 19 -3 10 -20 -6 -11 -7 -20 -1 -20 5 0 12 7 15
16 7 19 -12 47 -25 38 -5 -3 -9 2 -9 10 0 16 26 21 53 10 14 -5 14 -11 2 -50
-7 -24 -10 -44 -5 -44 4 0 13 20 19 45 7 28 16 43 22 39 7 -4 7 0 0 12 -5 11
-12 27 -15 37 -5 17 -27 23 -39 10z m-57 -73 c0 -5 -9 -10 -20 -10 -11 0 -20
5 -20 10 0 6 9 10 20 10 11 0 20 -4 20 -10z"/>
<path d="M798 2068 c-21 -6 -38 -14 -38 -20 0 -5 5 -6 11 -3 6 4 13 -2 16 -14
3 -11 14 -23 24 -26 16 -5 17 -10 8 -28 -11 -21 -11 -21 7 -6 10 9 25 14 31
12 9 -3 9 6 -2 37 -8 23 -12 46 -9 51 6 11 1 10 -48 -3z m36 -25 c8 -19 -8
-38 -23 -29 -16 10 -13 46 3 46 8 0 17 -8 20 -17z"/>
<path d="M1496 2037 c23 -13 21 -37 -2 -37 -8 0 -14 -7 -14 -16 0 -8 5 -12 11
-8 6 3 22 1 35 -6 20 -11 21 -16 12 -34 -10 -18 -9 -19 4 -8 9 7 21 26 28 42
11 26 14 28 36 18 29 -14 31 -28 4 -35 -12 -3 -20 -13 -19 -27 0 -11 3 -15 6
-8 8 19 18 15 62 -28 28 -27 39 -45 34 -57 -4 -9 10 1 30 23 25 27 39 36 46
28 8 -7 2 -19 -19 -39 -16 -16 -30 -33 -30 -39 0 -5 15 5 34 23 l34 33 32 -22
c23 -16 28 -26 21 -33 -8 -8 -14 -8 -23 1 -15 15 -38 16 -38 0 0 -6 3 -8 7 -5
3 4 12 2 20 -5 11 -9 10 -15 -8 -35 -34 -35 -11 -28 32 12 l38 34 -51 46 c-59
53 -90 73 -82 52 6 -18 -20 -40 -42 -35 -23 4 -30 26 -8 24 22 -2 42 30 28 44
-14 14 -47 1 -40 -16 7 -18 -5 -18 -29 0 -22 16 -14 49 10 40 8 -3 15 -3 15 1
0 8 -166 85 -183 85 -6 -1 -3 -6 9 -13z m64 -27 c13 -8 13 -11 -2 -27 -21 -20
-45 -5 -35 21 7 18 16 20 37 6z m150 -90 c0 -5 -4 -10 -10 -10 -5 0 -10 5 -10
10 0 6 5 10 10 10 6 0 10 -4 10 -10z"/>
<path d="M1590 2040 c0 -5 5 -10 10 -10 6 0 10 5 10 10 0 6 -4 10 -10 10 -5 0
-10 -4 -10 -10z"/>
<path d="M600 1979 c-73 -40 -176 -116 -214 -158 -19 -21 -9 -30 11 -10 11 11
28 -4 28 -26 0 -5 16 -11 35 -11 26 -1 28 -1 8 3 -33 5 -35 14 -7 31 25 16 49
1 49 -29 0 -20 24 -26 35 -9 3 6 -1 7 -9 4 -9 -3 -16 -1 -16 4 0 6 17 13 38
15 l37 4 -36 1 c-26 2 -44 11 -69 37 -18 19 -32 36 -29 38 40 32 78 57 87 57
21 0 12 -15 -21 -34 l-32 -19 29 -10 c20 -7 35 -6 46 1 13 8 21 7 29 -1 21
-21 11 6 -14 39 -14 18 -25 34 -25 36 0 2 16 12 35 22 41 23 60 12 27 -14 -15
-13 -19 -21 -11 -26 6 -4 16 1 21 10 12 22 25 20 33 -4 3 -11 11 -20 17 -20 5
0 1 16 -11 36 -24 41 -26 54 -8 54 7 0 21 -16 31 -35 11 -19 22 -35 26 -35 8
0 -32 89 -40 89 -3 1 -39 -18 -80 -40z m-30 -89 c0 -11 -7 -20 -15 -20 -27 0
-18 30 13 39 1 1 2 -8 2 -19z m-102 -53 c4 -21 -25 -34 -40 -19 -8 8 -8 16 2
27 16 19 34 15 38 -8z"/>
<path d="M1490 1951 c0 -6 4 -13 10 -16 6 -3 7 1 4 9 -7 18 -14 21 -14 7z"/>
<path d="M261 1670 c-52 -79 -113 -208 -125 -265 -5 -25 -4 -28 6 -15 15 18
51 15 45 -3 -2 -7 -14 -14 -28 -15 -33 -5 -46 -19 -31 -34 8 -8 15 -8 26 1 8
7 19 10 24 8 4 -3 14 -2 22 4 10 5 11 9 3 9 -7 0 -10 7 -6 16 3 9 13 14 24 11
11 -3 19 -2 19 2 0 4 -20 12 -45 19 -31 8 -43 16 -39 26 4 12 12 12 51 0 26
-8 48 -12 50 -10 3 2 -13 9 -34 16 -48 16 -55 22 -47 44 7 19 41 17 37 -2 -2
-7 4 -12 13 -12 28 0 9 26 -34 47 -2 0 6 20 18 42 11 23 25 39 31 35 6 -4 6
-11 -2 -20 -19 -23 -3 -44 33 -43 27 1 29 2 8 6 -33 6 -41 15 -30 33 7 11 13
12 36 2 14 -7 28 -11 30 -9 2 2 -14 12 -36 22 -37 17 -49 33 -34 48 4 3 26 -5
50 -19 24 -14 44 -22 44 -16 0 5 -18 17 -40 27 -22 10 -40 21 -40 24 1 12 27
41 38 41 6 0 13 -8 15 -17 4 -14 5 -12 6 5 0 12 -4 22 -11 22 -8 0 -9 3 -2 10
19 19 46 0 41 -29 -5 -23 -4 -24 8 -8 8 11 20 15 31 12 14 -4 12 -1 -6 12 -13
10 -33 26 -42 36 -10 9 -19 17 -21 17 -2 0 -27 -36 -56 -80z m-101 -314 c0
-11 -19 -15 -25 -6 -3 5 1 10 9 10 9 0 16 -2 16 -4z"/>
<path d="M1920 1743 c0 -6 9 -22 21 -37 l20 -26 -25 -11 c-20 -9 -29 -9 -41 1
-8 7 -15 8 -15 2 0 -5 7 -13 17 -16 14 -6 14 -8 -3 -21 -32 -24 -5 -17 33 10
20 13 40 22 45 19 16 -10 7 12 -22 50 -17 22 -30 35 -30 29z"/>
<path d="M1880 1700 c0 -6 5 -8 10 -5 6 4 18 1 27 -7 14 -11 16 -11 11 2 -5
18 -48 27 -48 10z"/>
<path d="M191 1646 c-9 -10 -8 -16 3 -25 12 -10 14 -9 9 8 -3 13 1 21 14 24
14 4 15 5 2 6 -9 0 -22 -5 -28 -13z"/>
<path d="M1990 1652 c0 -7 7 -24 16 -38 19 -29 10 -47 -9 -19 -8 10 -20 15
-28 12 -10 -4 -9 -6 4 -6 9 -1 17 -6 17 -11 0 -6 11 -15 25 -20 37 -14 30 -35
-15 -50 -22 -7 -40 -17 -40 -22 0 -4 17 -1 38 8 20 8 42 16 47 17 13 3 45 48
45 65 0 6 -4 12 -10 12 -5 0 -7 -6 -5 -12 5 -14 -11 -46 -18 -38 -2 3 -18 30
-36 60 -17 30 -31 49 -31 42z"/>
<path d="M1937 1613 c-4 -3 -7 -21 -7 -39 0 -33 25 -53 43 -35 11 11 0 51 -14
51 -5 0 -4 -9 3 -20 13 -21 6 -36 -12 -25 -7 4 -10 22 -8 41 4 37 4 37 -5 27z"/>
<path d="M790 1445 l0 -95 100 0 100 0 0 95 0 95 -100 0 -100 0 0 -95z"/>
<path d="M1040 1445 l0 -95 100 0 100 0 0 95 0 95 -100 0 -100 0 0 -95z"/>
<path d="M1290 1445 l0 -95 100 0 100 0 0 95 0 95 -100 0 -100 0 0 -95z"/>
<path d="M2060 1504 c0 -3 5 -14 11 -26 15 -28 2 -36 -17 -10 -12 18 -19 20
-35 12 -10 -6 -19 -21 -19 -33 0 -13 -5 -28 -12 -35 -18 -18 5 -15 28 4 13 11
15 17 7 20 -18 8 -16 34 2 34 8 0 19 -9 25 -20 6 -11 17 -20 24 -20 21 0 27
-38 8 -45 -9 -3 -18 -1 -20 5 -5 13 -52 -27 -52 -44 0 -5 6 -3 13 6 16 22 75
29 82 10 8 -21 -3 -32 -33 -33 -15 0 -36 -4 -47 -9 -13 -5 2 -7 40 -4 33 2 61
3 62 4 3 0 -35 136 -46 163 -9 24 -21 36 -21 21z"/>
<path d="M260 1490 c-8 -5 -10 -10 -5 -10 6 0 17 5 25 10 8 5 11 10 5 10 -5 0
-17 -5 -25 -10z"/>
<path d="M540 1000 l0 -300 100 0 100 0 0 300 0 300 -100 0 -100 0 0 -300z"/>
<path d="M790 1000 l0 -300 100 0 100 0 0 300 0 300 -100 0 -100 0 0 -300z"/>
<path d="M1042 1003 l3 -298 98 -3 97 -3 0 301 0 300 -100 0 -100 0 2 -297z"/>
<path d="M1290 1003 c0 -251 2 -295 14 -283 19 21 406 568 406 575 0 3 -94 5
-210 5 l-210 0 0 -297z"/>
<path d="M139 1260 c-20 -21 -11 -44 19 -47 15 -2 21 1 16 8 -3 6 0 15 7 20
11 7 11 9 -3 9 -9 0 -18 6 -20 13 -2 9 -7 9 -19 -3z"/>
<path d="M2101 1213 c-1 -7 -8 -13 -17 -13 -13 0 -14 -3 -5 -13 6 -8 7 -18 3
-22 -4 -5 0 -6 9 -2 9 3 22 0 28 -6 9 -9 11 -8 5 7 -4 11 -2 21 7 27 11 7 11
9 -3 9 -9 0 -19 6 -21 13 -4 10 -6 10 -6 0z"/>
<path d="M133 1143 c15 -2 37 -2 50 0 12 2 0 4 -28 4 -27 0 -38 -2 -22 -4z"/>
<path d="M140 1121 l35 -7 -40 -21 -40 -22 55 1 c47 1 50 2 20 7 l-35 6 33 14
c46 19 40 31 -15 30 -46 -2 -46 -2 -13 -8z"/>
<path d="M2078 1078 c-21 -6 -38 -13 -38 -17 0 -4 18 -13 40 -20 52 -15 53
-35 1 -26 -34 6 -39 4 -44 -16 -9 -33 -1 -39 46 -38 23 1 34 3 25 6 -24 6 -23
17 5 37 21 15 21 16 5 29 -22 17 -22 21 -2 41 17 18 15 18 -38 4z m12 -18 c0
-5 -4 -10 -10 -10 -5 0 -10 5 -10 10 0 6 5 10 10 10 6 0 10 -4 10 -10z m-14
-61 c8 -14 -11 -33 -25 -25 -11 7 -4 36 9 36 5 0 12 -5 16 -11z"/>
<path d="M127 1053 c-24 -6 -18 -43 8 -53 32 -12 65 6 65 35 0 21 -4 25 -27
24 -16 -1 -36 -3 -46 -6z m63 -23 c0 -16 -7 -20 -35 -20 -35 0 -50 22 -22 33
31 13 57 7 57 -13z"/>
<path d="M150 980 c-34 -7 -34 -7 -5 -8 17 0 39 3 50 8 24 10 4 10 -45 0z"/>
<path d="M146 935 c4 -8 0 -23 -7 -32 -10 -12 -2 -10 29 7 51 29 53 40 7 40
-27 0 -33 -3 -29 -15z m39 -5 c-3 -5 -10 -10 -16 -10 -5 0 -9 5 -9 10 0 6 7
10 16 10 8 0 12 -4 9 -10z"/>
<path d="M2056 941 c-31 -5 -36 -8 -25 -17 24 -19 85 -47 72 -33 -19 19 -16
47 5 52 24 7 -5 5 -52 -2z m24 -21 c0 -13 -11 -13 -30 0 -12 8 -11 10 8 10 12
0 22 -4 22 -10z"/>
<path d="M193 893 c4 -4 -5 -19 -20 -35 -24 -25 -25 -28 -7 -27 10 1 30 5 44
10 21 7 20 8 -10 4 l-35 -5 28 25 c31 28 33 35 10 35 -9 0 -13 -3 -10 -7z"/>
<path d="M140 880 c-18 -12 -2 -12 25 0 13 6 15 9 5 9 -8 0 -22 -4 -30 -9z"/>
<path d="M2010 871 c-15 -28 -14 -29 30 -41 46 -12 60 -7 60 20 0 38 -72 55
-90 21z m70 -6 c18 -21 2 -35 -32 -28 -27 5 -36 22 -21 36 11 12 40 7 53 -8z"/>
<path d="M1986 805 c-8 -21 30 -57 56 -53 12 2 26 11 32 21 9 15 7 21 -8 33
-26 19 -72 18 -80 -1z m74 -10 c18 -22 -1 -39 -34 -31 -35 9 -36 46 -2 46 13
0 29 -7 36 -15z"/>
<path d="M220 803 c-8 -3 -26 -10 -39 -15 -13 -5 -22 -11 -19 -13 3 -3 25 3
49 14 40 18 46 28 9 14z"/>
<path d="M205 770 c-22 -10 -34 -19 -27 -19 7 -1 22 4 33 9 25 14 25 -2 -1
-25 -11 -10 -20 -22 -20 -27 0 -10 70 18 85 34 6 6 -5 3 -22 -6 -29 -15 -49
-7 -23 9 14 8 33 45 23 44 -4 0 -26 -9 -48 -19z"/>
<path d="M1960 729 c-14 -24 -15 -23 30 -43 l35 -16 -49 6 -48 6 33 -40 c19
-23 36 -39 38 -37 2 3 -1 10 -7 18 -13 16 -4 32 24 41 32 10 39 47 13 69 -28
23 -56 22 -69 -4z m66 -3 c15 -11 16 -17 7 -27 -16 -16 -74 7 -66 27 7 18 34
18 59 0z m-51 -67 c11 -17 -1 -21 -15 -4 -8 9 -8 15 -2 15 6 0 14 -5 17 -11z"/>
<path d="M255 708 c-2 -7 -5 -21 -7 -31 -4 -23 -23 -18 -22 5 0 9 -3 15 -8 12
-11 -7 -10 -28 3 -41 18 -18 39 -3 39 29 0 19 4 28 13 26 6 -3 12 -11 12 -19
0 -8 7 -19 15 -26 12 -9 8 -15 -23 -33 -21 -12 -36 -25 -33 -27 3 -3 19 5 35
17 17 11 36 18 42 14 6 -4 10 -3 7 2 -2 5 -12 26 -21 47 -17 36 -44 49 -52 25z"/>
<path d="M1939 628 c13 -14 20 -31 16 -37 -3 -6 1 -11 9 -11 24 0 19 13 -16
46 -30 26 -31 26 -9 2z"/>
<path d="M307 595 c-20 -14 -37 -28 -37 -31 0 -2 18 8 40 22 35 23 47 34 37
34 -1 0 -19 -11 -40 -25z"/>
<path d="M1900 600 c8 -5 22 -9 30 -9 10 0 8 3 -5 9 -27 12 -43 12 -25 0z"/>
<path d="M352 588 c2 -10 -10 -29 -27 -44 -16 -14 -23 -22 -15 -18 8 4 23 14
32 22 10 8 25 12 34 8 15 -6 13 -11 -14 -36 -37 -34 -39 -45 -12 -60 16 -8 25
-5 52 21 l33 31 -33 -22 c-18 -12 -40 -19 -49 -16 -14 6 -11 12 15 39 l31 32
-25 30 c-17 20 -24 24 -22 13z"/>
<path d="M1876 556 c6 -26 5 -28 -17 -22 -23 6 -23 6 1 -5 14 -6 33 -15 42
-20 25 -13 36 -11 17 4 -9 7 -23 26 -32 42 l-17 30 6 -29z"/>
<path d="M1810 505 c-16 -19 -8 -40 25 -61 20 -13 28 -14 40 -4 19 16 19 46 1
53 -15 6 -26 -1 -26 -14 0 -5 7 -6 15 -3 9 4 15 0 15 -9 0 -24 -29 -28 -50 -7
-26 26 -25 39 3 50 15 6 17 9 6 9 -9 1 -22 -6 -29 -14z"/>
<path d="M436 479 c3 -6 -7 -25 -22 -42 l-29 -32 32 29 c23 20 36 26 47 19 14
-8 12 -13 -14 -38 -28 -27 -29 -30 -13 -47 9 -10 21 -18 27 -18 6 0 3 7 -8 15
-11 9 -16 20 -12 31 6 16 8 15 26 -1 12 -10 20 -13 20 -7 0 7 -4 12 -10 12 -5
0 -10 7 -10 15 0 18 21 20 41 3 7 -7 -4 6 -26 30 -36 38 -66 57 -49 31z"/>
<path d="M1755 449 c-13 -20 5 -59 30 -65 29 -7 45 1 45 25 0 35 -59 67 -75
40z m53 -11 c18 -18 15 -48 -6 -48 -23 0 -42 19 -42 42 0 21 30 24 48 6z"/>
<path d="M1706 388 c5 -14 0 -17 -23 -15 -24 2 -28 -2 -31 -26 -3 -27 -4 -28
-18 -10 -12 14 -12 12 1 -14 17 -36 11 -41 -19 -18 -25 19 -37 19 -29 0 3 -9
8 -14 11 -11 2 3 18 -2 34 -10 32 -16 50 -12 30 8 -19 19 -14 33 6 15 40 -37
75 -9 52 41 l-12 27 26 -24 c25 -23 27 -24 43 -8 10 10 12 17 6 17 -7 0 -15
-5 -19 -11 -4 -6 -17 2 -35 23 -16 18 -26 25 -23 16z m-1 -38 c20 -22 13 -53
-11 -48 -23 4 -39 31 -31 52 8 21 20 20 42 -4z"/>
<path d="M526 361 c-21 -23 -18 -65 6 -69 9 -2 26 6 37 17 25 25 27 15 4 -19
-16 -24 -16 -25 3 -9 10 9 26 14 34 11 13 -4 13 -3 2 10 -15 19 -2 31 25 22
16 -6 16 -5 -2 9 -13 10 -24 12 -31 6 -8 -7 -14 -2 -18 16 -8 30 -36 33 -60 6z
m51 -7 c7 -19 -30 -59 -46 -50 -15 9 -14 39 1 54 17 17 37 15 45 -4z"/>
<path d="M1569 293 c14 -28 -15 -42 -35 -16 -8 11 -13 13 -14 6 0 -7 -11 -13
-25 -13 -21 0 -25 -5 -25 -28 0 -41 24 -70 46 -56 10 6 20 17 22 25 2 8 -2 5
-11 -6 -13 -16 -17 -17 -31 -6 -9 7 -16 25 -16 38 0 20 4 24 20 20 11 -3 20 0
20 6 0 7 10 -3 21 -20 23 -36 36 -45 20 -14 -15 26 16 38 36 14 13 -17 14 -16
8 7 -6 24 -5 24 9 6 20 -25 21 -6 1 20 -11 14 -14 15 -15 4 0 -10 -7 -7 -21
10 -17 21 -19 21 -10 3z"/>
<path d="M660 261 c-11 -23 -18 -41 -16 -41 8 0 48 71 43 76 -3 3 -15 -12 -27
-35z"/>
<path d="M687 255 c-22 -46 -21 -59 1 -20 l17 30 3 -38 c2 -20 7 -35 12 -32 9
6 2 75 -9 88 -4 4 -15 -9 -24 -28z"/>
<path d="M740 249 c-16 -29 -11 -36 6 -9 14 23 15 24 10 3 -9 -35 -14 -59 -9
-45 3 8 13 12 24 9 10 -3 19 -1 19 4 0 5 -4 9 -10 9 -5 0 -10 7 -10 16 0 11 6
14 21 9 13 -5 19 -3 15 3 -12 19 -56 20 -66 1z"/>
<path d="M1388 236 c-35 -10 -68 -31 -39 -24 8 2 18 -12 26 -37 15 -46 20 -36
6 12 -7 24 -6 33 5 37 9 3 17 -8 25 -34 7 -22 13 -40 15 -40 13 0 56 22 51 26
-3 3 -14 1 -25 -5 -16 -8 -21 -7 -26 5 -4 11 1 18 14 21 29 8 25 21 -5 15 -32
-6 -33 15 -2 28 31 13 -1 10 -45 -4z"/>
<path d="M816 218 c-20 -28 -20 -52 -2 -67 18 -15 45 -4 57 23 8 17 9 14 5
-14 -4 -31 -4 -32 6 -12 15 29 24 28 37 -5 l11 -28 -4 28 c-2 15 1 27 6 27 5
0 8 10 6 22 -3 25 -36 37 -48 18 -6 -9 -11 -7 -19 9 -15 27 -36 27 -55 -1z
m44 -3 c10 -12 9 -20 -5 -41 -15 -24 -18 -25 -33 -11 -13 13 -13 21 -4 42 13
29 24 31 42 10z m70 -20 c0 -8 -9 -15 -20 -15 -20 0 -26 11 -13 23 12 13 33 7
33 -8z"/>
<path d="M956 187 c-3 -12 -5 -33 -5 -47 1 -23 2 -23 9 5 l8 30 1 -27 c1 -30
15 -37 25 -12 3 8 2 12 -4 9 -6 -4 -10 7 -10 24 0 37 -16 49 -24 18z"/>
<path d="M1256 170 c8 -54 14 -64 14 -24 l0 29 25 -30 24 -30 0 30 c0 17 -5
39 -10 50 -7 15 -7 11 -3 -15 l6 -35 -31 35 -31 35 6 -45z"/>
<path d="M1007 187 c-3 -8 -2 -29 3 -48 7 -28 8 -30 9 -9 1 14 4 35 7 48 7 23
-10 31 -19 9z"/>
<path d="M1041 159 c-7 -23 -10 -44 -7 -47 3 -3 6 0 6 6 0 7 9 12 20 12 12 0
20 -7 20 -17 0 -9 2 -14 5 -11 8 7 -15 98 -25 98 -4 0 -12 -18 -19 -41z m29
-4 c0 -8 -4 -15 -10 -15 -5 0 -10 7 -10 15 0 8 5 15 10 15 6 0 10 -7 10 -15z"/>
<path d="M1098 193 c7 -2 13 -25 14 -51 l1 -47 4 40 c3 22 9 45 15 52 8 10 4
13 -18 12 -16 0 -23 -3 -16 -6z"/>
<path d="M1150 169 c0 -19 4 -41 9 -48 6 -10 8 1 4 30 -7 55 -13 63 -13 18z"/>
<path d="M1184 186 c-3 -8 -4 -27 -2 -43 2 -22 8 -28 27 -28 33 0 48 26 33 59
-13 28 -49 36 -58 12z m52 -22 c8 -29 -7 -49 -30 -41 -10 4 -16 18 -16 37 0
40 36 43 46 4z"/>
</g>
</svg>
